# AST/ASF file generated using VICON BodyLanguage
# -----------------------------------------------
:version 1.10
:name VICON
:units
  mass 1.0
  length 0.45
  angle deg
:documentation
   .ast/.asf automatically generated from VICON data using
   VICON BodyBuilder and BodyLanguage model FoxedUp or BRILLIANT.MOD
:root
   order TX TY TZ RX RY RZ
   axis XYZ
   position 0 0 0  
   orientation 0 -0 0 
:bonedata
  begin
     id 1 
     name lhipjoint
     direction 0.500677 -0.737119 0.453848 
     length 2.34727 
     axis 0 -0 0  XYZ
  end
  begin
     id 2 
     name lfemur
     direction 0.34202 -0.939693 0  
     length 7.53653  
     axis 0 -0 20  XYZ
    dof rx ry rz
    limits (-160.0 20.0)
           (-70.0 70.0)
           (-60.0 70.0)
  end
  begin
     id 3 
     name ltibia
     direction 0.34202 -0.939693 0   
     length 6.85572   
     axis 0 -0 20   XYZ
    dof rx
    limits (-10.0 170.0)
  end
  begin
     id 4 
     name lfoot
     direction 0.155313 -0.426718 0.890949   
     length 2.18324   
     axis -90 -1.13533e-015 20   XYZ
    dof rx rz
    limits (-45.0 90.0)
           (-70.0 20.0)
  end
  begin
     id 5 
     name ltoes
     direction 1.53474e-011 -4.21647e-011 1   
     length 1.06748   
     axis -90 -1.13533e-015 20   XYZ
    dof rx
    limits (-90.0 20.0)
  end
  begin
     id 6 
     name rhipjoint
     direction -0.632471 -0.659587 0.406111   
     length 2.62319  
     axis 0 -0 0  XYZ 
  end
  begin
     id 7 
     name rfemur
     direction -0.34202 -0.939693 0   
     length 7.21735   
     axis 0 -0 -20   XYZ
    dof rx ry rz
    limits (-160.0 20.0)
           (-70.0 70.0)
           (-70.0 60.0)
  end
  begin
     id 8 
     name rtibia
     direction -0.34202 -0.939693 0   
     length 7.02558   
     axis 0 -0 -20   XYZ
    dof rx
    limits (-10.0 170.0)
 end
 begin
     id 9 
     name rfoot
     direction -0.16057 -0.441164 0.882945   
     length 2.10014  
     axis -90 1.13533e-015 -20   XYZ
    dof rx rz
    limits (-45.0 90.0)
           (-20.0 70.0)
  end
  begin
     id 10 
     name rtoes
     direction -1.53553e-011 -4.2192e-011 1   
     length 1.02554   
     axis -90 1.13533e-015 -20   XYZ
    dof rx
    limits (-90.0 20.0)
  end
  begin
     id 11 
     name lowerback
     direction 0.0401429 0.998861 -0.0258085   
     length 1.80848   
     axis 0 -0 0   XYZ
    dof rx ry rz
    limits (-20.0 45.0)
           (-30.0 30.0)
           (-30.0 30.0)
  end
  begin
     id 12 
     name upperback
     direction -0.0130978 0.999914 -0.000352645   
     length 1.8116   
     axis 0 -0 0   XYZ
    dof rx ry rz
    limits (-20.0 45.0)
           (-30.0 30.0)
           (-30.0 30.0)
  end
  begin
     id 13 
     name thorax
     direction -0.0300198 0.999453 0.0138573   
     length 1.81778   
     axis 0 -0 0   XYZ
    dof rx ry rz
    limits (-20.0 45.0)
           (-30.0 30.0)
           (-30.0 30.0)
  end
  begin
     id 14 
     name lowerneck
     direction -0.0401726 0.999191 -0.00173647   
     length 2.10594   
     axis 0 -0 0   XYZ
    dof rx ry rz
    limits (-20.0 45.0)
           (-30.0 30.0)
           (-30.0 30.0)
  end
  begin
     id 15 
     name upperneck
     direction 0.0119835 0.998501 0.0534085   
     length 2.07325   
     axis 0 -0 0   XYZ
    dof rx ry rz
    limits (-20.0 45.0)
           (-30.0 30.0)
           (-30.0 30.0)
  end
  begin
     id 16
     name head
     direction 0.00628309 0.999826 0.0175921  
     length 2.15096  
     axis 0 -0 0   XYZ
    dof rx ry rz
    limits (-20.0 45.0)
           (-30.0 30.0)
           (-30.0 30.0)
  end
  begin
     id 17 
     name lclavicle
     direction 0.895501 0.429681 -0.115981  
     length 4.18092  
     axis 0 -0 0   XYZ
    dof ry rz
    limits (-20.0 10.0)
           (0.0 20.0)
  end
  begin
     id 18 
     name lhumerus
     direction 1 -4.48961e-011 -3.38433e-028   
     length 5.77237   
     axis 180 -30 -90   XYZ
    dof rx ry rz
    limits (-60.0 90.0)
           (-90.0 90.0)
           (-90.0 90.0)
  end
  begin
     id 19
     name lradius
     direction 1 -4.4901e-011 1.11983e-026   
     length 2.91878   
     axis 180 -30 -90   XYZ
    dof rx
    limits (-10.0 170.0)
  end
  begin
     id 20
     name lwrist
     direction 1 -4.48934e-011 1.88176e-026   
     length 1.45939   
     axis -1.23311e-014 90 90   XYZ
    dof ry
    limits (-180.0 0.0)
 end
  begin
     id 21 
     name lhand
     direction 1 -4.4895e-011 3.76352e-026   
     length 1.06566   
     axis -2.40147e-014 90 90   XYZ
    dof rx rz
    limits (-90.0 90.0)
           (-45.0 45.0)
  end
  begin
     id 22 
     name lfingers
     direction 1 -4.49005e-011 7.52705e-026   
     length 0.859162   
     axis -4.80295e-014 90 90   XYZ
    dof rx
    limits (0.0 90.0)
  end
  begin
     id 23
     name lthumb
     direction 0.707107 -6.34885e-011 0.707107   
     length 1.23359   
     axis -90 45 -9.86935e-015   XYZ
    dof rx rz
    limits (-45.0 45.0)
           (-45.0 45.0)
  end
  begin
     id 24 
     name rclavicle
     direction -0.91006 0.40451 -0.0903492   
     length 4.23293  
     axis 0 -0 0   XYZ 
    dof ry rz
    limits (-10.0 20.0)
           (-20.0 0.0)
  end
  begin
     id 25 
     name rhumerus
     direction -1 -4.4897e-011 1.7415e-027  
     length 5.49854   
     axis 180 30 90   XYZ
    dof rx ry rz
    limits (-90.0 60.0)
           (-90.0 90.0)
           (-90.0 90.0)
  end
  begin
     id 26 
     name rradius
     direction -1 -4.48963e-011 1.21259e-026   
     length 3.1186   
     axis 180 30 90   XYZ
    dof rx
    limits (-10.0 170.0)
  end
  begin
     id 27 
     name rwrist
     direction -1 -4.48967e-011 1.88176e-026   
     length 1.5593   
     axis -1.23311e-014 -90 -90   XYZ
    dof ry
    limits (-180.0 0.0)
  end
  begin
     id 28
     name rhand
     direction -1 -4.4895e-011 3.76352e-026   
     length 0.71207   
     axis -2.40147e-014 -90 -90   XYZ
    dof rx rz
    limits (-90.0 90.0)
           (-45.0 45.0)
  end
  begin
     id 29
     name rfingers
     direction -1 -4.49005e-011 7.52705e-026   
     length 0.574089   
     axis -4.80295e-014 -90 -90   XYZ
    dof rx
    limits (0.0 90.0)
  end
  begin
     id 30
     name rthumb
     direction -0.707107 -6.34982e-011 0.707107   
     length 0.824281   
     axis -90 -45 9.86935e-015   XYZ
    dof rx rz
    limits (-45.0 45.0)
           (-45.0 45.0)
  end
:hierarchy
  begin
    root lhipjoint rhipjoint lowerback
    lhipjoint lfemur
    lfemur ltibia
    ltibia lfoot
    lfoot ltoes
    rhipjoint rfemur
    rfemur rtibia
    rtibia rfoot
    rfoot rtoes
    lowerback upperback
    upperback thorax
    thorax lowerneck lclavicle rclavicle
    lowerneck upperneck
    upperneck head
    lclavicle lhumerus
    lhumerus lradius
    lradius lwrist
    lwrist lhand lthumb
    lhand lfingers
    rclavicle rhumerus
    rhumerus rradius
    rradius rwrist
    rwrist rhand rthumb
    rhand rfingers
  end

#!OML:ASF C:\ViconDB\ViconDB\414\Spring2016\042216\male.ASF
:FULLY-SPECIFIED
:DEGREES
159
root 4.19061 22.6304 8.90997 -149.03 68.3118 -155.009
lowerback 2.85459 -1.4137 9.2433
upperback -2.92995 -1.32004 0.964238
thorax -4.87626 -0.93065 -4.07748
lowerneck -1.94242 9.15025 -8.11213
upperneck -16.7694 13.1746 2.24903
head -5.45177 7.02775 1.37168
rclavicle 4.37575e-014 -1.59028e-015
rhumerus 6.84196 16.7591 -60.9941
rradius 100.685
rwrist 5.95569
rhand 7.26603 -30.8303
rfingers 7.12502
rthumb 32.5289 -57.9287
lclavicle 4.37575e-014 -1.59028e-015
lhumerus 1.81354 -0.770189 75.3583
lradius 92.9209
lwrist 11.0746
lhand -8.45567 10.9303
lfingers 7.12502
lthumb 17.4704 40.1653
rfemur -8.30263 -7.03823 28.2441
rtibia 34.6038
rfoot 14.1483 -7.88934
rtoes -3.85933
lfemur -17.2128 5.51875 -8.3347
ltibia 57.3339
lfoot 1.30556 -2.37206
ltoes -10.8459
160
root 4.17712 22.9121 8.93117 -149.562 68.4298 -155.112
lowerback 4.15024 -1.43661 9.19346
upperback -2.69964 -1.23504 0.898752
thorax -5.36026 -0.90481 -4.10435
lowerneck -1.7643 9.18686 -8.11224
upperneck -17.2894 13.2189 1.99649
head -5.63128 7.07629 1.26723
rclavicle 5.81445e-015 2.26615e-014
rhumerus 5.20337 18.364 -62.9756
rradius 99.3502
rwrist 8.18424
rhand 8.88486 -29.2339
rfingers 7.12502
rthumb 34.0679 -56.0025
lclavicle 5.81445e-015 2.26615e-014
lhumerus 0.136162 -0.798901 76.466
lradius 92.1233
lwrist 10.1104
lhand -8.27807 10.88
lfingers 7.12502
lthumb 17.6413 40.0997
rfemur -9.47302 -7.86488 28.0982
rtibia 39.3349
rfoot 12.6564 -7.91819
rtoes -3.87009
lfemur -18.0317 6.37964 -8.46922
ltibia 61.4179
lfoot 0.824801 -2.33307
ltoes -10.9344
161
root 4.17316 23.1722 8.94837 -149.624 68.579 -154.872
lowerback 5.44389 -1.45213 9.39613
upperback -2.63533 -1.11169 0.770996
thorax -6.02581 -0.88236 -4.3437
lowerneck -1.36014 9.1353 -8.14442
upperneck -17.8419 13.149 1.95808
head -5.86893 7.05379 1.22629
rclavicle 2.48978e-014 7.15625e-015
rhumerus 3.32143 20.1054 -65.3375
rradius 97.8886
rwrist 9.63006
rhand 9.91366 -29.0938
rfingers 7.12502
rthumb 35.0444 -55.6394
lclavicle 2.48978e-014 7.15625e-015
lhumerus -1.80176 -0.822478 77.3824
lradius 91.0865
lwrist 9.40857
lhand -7.98097 10.8078
lfingers 7.12502
lthumb 17.9272 40.0015
rfemur -10.8143 -8.90653 28.0399
rtibia 44.1002
rfoot 11.3661 -7.64371
rtoes -4.50908
lfemur -18.9764 7.19462 -8.47297
ltibia 65.3652
lfoot -0.000286888 -1.62231
ltoes -10.965
162
root 4.17442 23.4156 8.96839 -150.153 68.7614 -155.121
lowerback 6.5782 -1.48617 9.28069
upperback -2.45824 -1.06975 0.578818
thorax -6.4822 -0.878731 -4.47284
lowerneck -0.86714 9.19009 -7.75382
upperneck -18.6186 13.1942 1.55001
head -6.14646 7.08927 0.991023
rclavicle -4.2043e-014 -6.36111e-015
rhumerus 1.55699 21.9075 -67.46
rradius 96.3055
rwrist 9.65947
rhand 9.95647 -29.4745
rfingers 7.12502
rthumb 35.0851 -56.0106
lclavicle -4.2043e-014 -6.36111e-015
lhumerus -3.45025 -0.747505 78.2124
lradius 89.6592
lwrist 8.58266
lhand -7.86209 10.6384
lfingers 7.12502
lthumb 18.0415 39.8216
rfemur -12.1795 -9.56004 27.8054
rtibia 48.8629
rfoot 9.8337 -7.97885
rtoes -4.21248
lfemur -19.9027 7.76621 -8.65703
ltibia 69.1336
lfoot -1.18689 -0.173426
ltoes -10.9828
163
root 4.18125 23.6438 8.98659 -150.837 68.9645 -155.686
lowerback 7.44746 -1.57046 9.09386
upperback -2.23436 -1.14266 0.315478
thorax -6.75222 -0.920904 -4.6286
lowerneck -0.610803 9.29303 -7.25218
upperneck -19.2722 13.3253 1.1257
head -6.34092 7.16355 0.743823
rclavicle 4.47266e-015 5.56597e-015
rhumerus -0.00353919 23.3407 -69.7006
rradius 94.2562
rwrist 8.98169
rhand 10.2688 -28.7804
rfingers 7.12502
rthumb 35.3812 -55.2466
lclavicle 4.47266e-015 5.56597e-015
lhumerus -4.99411 -0.391564 79.0061
lradius 88.1156
lwrist 8.49487
lhand -7.97754 10.8341
lfingers 7.12502
lthumb 17.9304 40.0276
rfemur -13.7208 -10.0008 27.4564
rtibia 53.605
rfoot 8.31844 -8.29147
rtoes -4.51055
lfemur -20.9796 8.28789 -8.97391
ltibia 72.7457
lfoot -2.64443 1.71907
ltoes -11.3169
164
root 4.18607 23.8397 9.01039 -151.813 69.1844 -156.576
lowerback 8.32738 -1.64452 8.7265
upperback -2.0103 -1.22687 0.0156833
thorax -7.02473 -0.961397 -4.71965
lowerneck -0.324126 9.33762 -6.85301
upperneck -20.0077 13.4031 0.835305
head -6.5809 7.21165 0.550343
rclavicle 3.33958e-014 6.36111e-015
rhumerus -1.83666 24.8639 -72.0142
rradius 92.1166
rwrist 8.34328
rhand 10.009 -28.4873
rfingers 7.12502
rthumb 35.1348 -55.0117
lclavicle 3.33958e-014 6.36111e-015
lhumerus -6.23363 -0.649164 79.2287
lradius 86.0012
lwrist 8.66595
lhand -8.46075 11.2255
lfingers 7.12502
lthumb 17.4655 40.4609
rfemur -15.2942 -10.2669 27.0267
rtibia 58.2103
rfoot 6.98949 -8.51376
rtoes -5.33057
lfemur -22.0561 8.7781 -9.41254
ltibia 76.091
lfoot -4.04923 3.84173
ltoes -12.0509
